<svg height="480pt" viewBox="0 -14 480 479" width="480pt" xmlns="http://www.w3.org/2000/svg">
    <g fill="#d0ecf4">
        <path d="m290.480469 172.023438 181.519531 102.601562v40l-186.160156-40.472656"/>
        <path d="m189.152344 172.234375-181.152344 102.390625v40l185.953125-40.425781"/>
        <path d="m280.855469 379.191406 71.144531 47.433594v16l-98.496094-8.207031"/>
        <path d="m199.105469 379.222656-71.105469 47.402344v16l98.496094-8.207031"/>
    </g>
    <path d="m186.640625 118.945312 12 254.328126c.898437 19.046874 7.988281 37.277343 20.191406 51.925781l9.71875 11.65625c2.839844 3.40625 7.042969 5.371093 11.472657 5.371093 4.433593 0 8.636718-1.964843 11.472656-5.371093l9.664062-11.597657c12.242188-14.683593 19.335938-32.96875 20.199219-52.066406l11.777344-259.117187c.769531-37.335938-13.726563-73.371094-40.136719-99.769531l-1.28125-1.28125c-5.808594-5.808594-15.171875-5.988282-21.199219-.40625-29.511719 27.292968-45.554687 66.164062-43.878906 106.328124zm0 0"
          fill="#92d7e7"/>
    <path d="m8 322.625c.570312.003906 1.140625-.058594 1.695312-.183594l176.710938-38.402344 4.21875 89.601563c0 .511719.101562 1.015625.136719 1.519531l-67.203125 44.800782c-2.226563 1.484374-3.5625 3.988281-3.558594 6.664062v16c0 4.417969 3.582031 8 8 8h.664062l94.488282-7.878906c4.296875 4.78125 10.421875 7.511718 16.847656 7.511718s12.550781-2.730468 16.847656-7.511718l94.488282 7.878906h.664062c4.417969 0 8-3.582031 8-8v-16c0-2.675781-1.335938-5.171875-3.558594-6.65625l-67.25-44.800781c0-.527344.113282-1.054688.136719-1.597657l4.070313-89.601562 176.90625 38.457031c.554687.128907 1.125.195313 1.695312.199219 4.417969 0 8-3.582031 8-8v-40c0-2.886719-1.550781-5.546875-4.0625-6.96875l-177.242188-100.175781 2.402344-53.238281c.742188-39.5-14.582031-77.609376-42.457031-105.601563l-1.28125-1.28125c-8.824219-8.894531-23.121094-9.175781-32.289063-.628906-31.246093 28.871093-48.214843 70.027343-46.398437 112.535156l2.28125 48.421875-176.890625 99.96875c-2.511719 1.421875-4.0625 4.082031-4.0625 6.96875v40c0 4.417969 3.582031 8 8 8zm128 108.28125 57.535156-38.355469c3.238282 12.769531 9.066406 24.734375 17.128906 35.152344l-74.664062 6.226563zm208 0v3.023438l-74.671875-6.226563c8.058594-10.433594 13.882813-22.414063 17.113281-35.199219zm120-151.617188v25.40625l-169.863281-36.925781 3.742187-82.402343zm-228.046875-260.800781c2.871094-2.675781 7.34375-2.589843 10.109375.191407l1.28125 1.28125c24.761719 24.847656 38.390625 58.675781 37.777344 93.75l-11.777344 259.113281c-.820312 17.34375-7.261719 33.949219-18.351562 47.3125l-9.65625 11.601562c-1.320313 1.578125-3.273438 2.492188-5.335938 2.492188s-4.015625-.914063-5.335938-2.492188l-9.710937-11.664062c-11.066406-13.332031-17.503906-29.898438-18.34375-47.203125l-11.976563-254.246094c-1.617187-37.828125 13.496094-74.453125 41.320313-100.136719zm-219.953125 260.800781 165.769531-93.6875 3.871094 82.222657-169.640625 36.871093zm0 0"/>
    <path d="m240 314.625c-4.417969 0-8 3.582031-8 8v88c0 4.417969 3.582031 8 8 8s8-3.582031 8-8v-88c0-4.417969-3.582031-8-8-8zm0 0"/>
    <path d="m222.398438 95.425781 4.800781-6.402343c3.128906-3.859376 7.832031-6.097657 12.800781-6.097657s9.671875 2.238281 12.800781 6.097657l4.800781 6.402343c2.648438 3.535157 7.664063 4.25 11.199219 1.597657 3.535157-2.648438 4.25-7.664063 1.597657-11.199219l-4.796876-6.398438c-6.042968-8.058593-15.53125-12.800781-25.601562-12.800781s-19.558594 4.742188-25.601562 12.800781l-4.796876 6.398438c-2.652343 3.535156-1.9375 8.550781 1.597657 11.199219 3.535156 2.652343 8.550781 1.9375 11.199219-1.597657zm0 0"/>
</svg>