<?xml version="1.0" encoding="utf-8"?>
<!-- Generator: Adobe Illustrator 23.0.3, SVG Export Plug-In . SVG Version: 6.00 Build 0)  -->
<svg version="1.1" id="Layer_1" xmlns="http://www.w3.org/2000/svg" xmlns:xlink="http://www.w3.org/1999/xlink" x="0px" y="0px"
	 viewBox="0 0 480 480" style="enable-background:new 0 0 480 480;" xml:space="preserve">
<style type="text/css">
	.st0{fill:#D0ECF4;}
	.st1{fill:#92D7E7;}
</style>
<g>
	<path class="st0" d="M189.5,293.6L8,191v-40l186.2,40.5"/>
	<path class="st0" d="M290.8,293.4L472,191v-40l-186,40.4"/>
	<path class="st0" d="M199.1,86.4L128,39V23l98.5,8.2"/>
	<path class="st0" d="M280.9,86.4L352,39V23l-98.5,8.2"/>
</g>
<path class="st1" d="M293.4,346.7l-12-254.3c-0.9-19-8-37.3-20.2-51.9l-9.7-11.7c-2.8-3.4-7-5.4-11.5-5.4c-4.4,0-8.6,2-11.5,5.4
	l-9.7,11.6c-12.2,14.7-19.3,33-20.2,52.1l-11.8,259.1c-0.8,37.3,13.7,73.4,40.1,99.8l1.3,1.3c5.8,5.8,15.2,6,21.2,0.4
	C279,425.7,295,386.8,293.4,346.7z"/>
<path d="M472,143c-0.6,0-1.1,0.1-1.7,0.2l-176.7,38.4L289.4,92c0-0.5-0.1-1-0.1-1.5l67.2-44.8c2.2-1.5,3.6-4,3.6-6.7V23
	c0-4.4-3.6-8-8-8h-0.7l-94.5,7.9c-4.3-4.8-10.4-7.5-16.8-7.5s-12.6,2.7-16.8,7.5L128.7,15H128c-4.4,0-8,3.6-8,8v16
	c0,2.7,1.3,5.2,3.6,6.7l67.3,44.8c0,0.5-0.1,1.1-0.1,1.6l-4.1,89.6L9.7,143.2C9.1,143.1,8.6,143,8,143c-4.4,0-8,3.6-8,8v40
	c0,2.9,1.6,5.5,4.1,7l177.2,100.2l-2.4,53.2c-0.7,39.5,14.6,77.6,42.5,105.6l1.3,1.3c8.8,8.9,23.1,9.2,32.3,0.6
	c31.2-28.9,48.2-70,46.4-112.5l-2.3-48.4l176.9-100c2.5-1.4,4.1-4.1,4.1-7v-40C480,146.6,476.4,143,472,143z M344,34.7l-57.5,38.4
	c-3.2-12.8-9.1-24.7-17.1-35.2l74.7-6.2V34.7z M136,34.7v-3l74.7,6.2c-8.1,10.4-13.9,22.4-17.1,35.2L136,34.7z M16,186.3v-25.4
	l169.9,36.9l-3.7,82.4L16,186.3z M244,447.1c-2.9,2.7-7.3,2.6-10.1-0.2l-1.3-1.3c-24.8-24.8-38.4-58.7-37.8-93.8l11.8-259.1
	c0.8-17.3,7.3-33.9,18.4-47.3l9.7-11.6c1.3-1.6,3.3-2.5,5.3-2.5s4,0.9,5.3,2.5l9.7,11.7c11.1,13.3,17.5,29.9,18.3,47.2l12,254.2
	C287,384.8,271.9,421.5,244,447.1z M464,186.3L298.2,280l-3.9-82.2L464,160.9V186.3z"/>
<path d="M240,151c4.4,0,8-3.6,8-8V55c0-4.4-3.6-8-8-8s-8,3.6-8,8v88C232,147.4,235.6,151,240,151z"/>
<path d="M257.6,370.2l-4.8,6.4c-3.1,3.9-7.8,6.1-12.8,6.1s-9.7-2.2-12.8-6.1l-4.8-6.4c-2.6-3.5-7.7-4.3-11.2-1.6
	c-3.5,2.6-4.3,7.7-1.6,11.2l4.8,6.4c6,8.1,15.5,12.8,25.6,12.8s19.6-4.7,25.6-12.8l4.8-6.4c2.7-3.5,1.9-8.6-1.6-11.2
	C265.3,365.9,260.3,366.7,257.6,370.2z"/>
</svg>
