<?xml version="1.0" encoding="utf-8"?>
<!-- Generator: Adobe Illustrator 16.0.0, SVG Export Plug-In . SVG Version: 6.00 Build 0)  -->
<!DOCTYPE svg PUBLIC "-//W3C//DTD SVG 1.1//EN" "http://www.w3.org/Graphics/SVG/1.1/DTD/svg11.dtd">
<svg version="1.1" xmlns="http://www.w3.org/2000/svg" xmlns:xlink="http://www.w3.org/1999/xlink" x="0px" y="0px"
	 width="595.275px" height="566.93px" viewBox="0 0 595.275 566.93" enable-background="new 0 0 595.275 566.93"
	 xml:space="preserve">
<filter  id="AI_Shadow_1" filterUnits="objectBoundingBox">
	<feGaussianBlur  in="SourceAlpha" stdDeviation="1" result="blur"></feGaussianBlur>
	<feOffset  dy="0" dx="0" in="blur" result="offsetBlurredAlpha"></feOffset>
	<feMerge>
		<feMergeNode  in="offsetBlurredAlpha"></feMergeNode>
		<feMergeNode  in="SourceGraphic"></feMergeNode>
	</feMerge>
</filter>
<g id="Button">
	<g id="Flag_frame">
		<defs>
			<ellipse id="Mask_1_" cx="297.638" cy="283.465" rx="228.735" ry="216.373"/>
		</defs>
		<use xlink:href="#Mask_1_"  overflow="visible" fill="#FFFFFF"/>
		<clipPath id="Mask_2_">
			<use xlink:href="#Mask_1_"  overflow="visible"/>
		</clipPath>
		<g id="FR" clip-path="url(#Mask_2_)">
			<g>
				<defs>
					<rect id="SVGID_1_" x="42.521" y="75.854" width="509.646" height="419.493"/>
				</defs>
				<clipPath id="SVGID_2_">
					<use xlink:href="#SVGID_1_"  overflow="visible"/>
				</clipPath>
				<rect x="42.521" y="75.854" clip-path="url(#SVGID_2_)" fill="#263375" width="169.891" height="419.493"/>
				<rect x="212.412" y="75.854" clip-path="url(#SVGID_2_)" fill="#FFFFFF" width="169.874" height="419.493"/>
				<rect x="382.286" y="75.854" clip-path="url(#SVGID_2_)" fill="#D61F28" width="169.882" height="419.493"/>
			</g>
		</g>
	</g>
</g>
<g id="IVAO_Logo" filter="url(#AI_Shadow_1)">
	<g>
		<path fill="#FFFFFF" stroke="#52504D" d="M59.91,283.678c0.004-122.91,106.18-222.52,237.17-222.531
			c130.995,0.012,237.175,99.621,237.183,222.531C534.254,406.58,428.075,506.189,297.08,506.201
			C166.089,506.189,59.914,406.58,59.91,283.678 M143.933,139.986c-39.221,36.816-63.422,87.535-63.434,143.691
			c0.012,56.152,24.213,106.871,63.434,143.688c39.236,36.789,93.299,59.512,153.146,59.52
			c59.858-0.008,113.913-22.73,153.151-59.52c39.219-36.816,63.43-87.535,63.438-143.688
			c-0.008-56.156-24.219-106.875-63.438-143.691c-39.238-36.797-93.293-59.516-153.151-59.52
			C237.232,80.471,183.169,103.189,143.933,139.986"/>
		<path fill="#FFFFFF" stroke="#52504D" d="M503.567,268.627l-1.52,4.074l-56.004-4.602c0,0-3.684-3.223-6.434-3.305
			c-2.754-0.09-4.906,2.594-4.906,2.594l-47.637-7.773c0,0-2.59-4.906-8.438-5.098c-5.848-0.199-5.941,2.555-5.941,2.555
			c-53.09-9.324-54.297-14.535-54.297-14.535s-0.559-5.617-0.559-15.027c0-35.5-13.996-55.512-20.853-55.684
			c-6.854-0.168-20.764,19.949-20.764,54.98c0,9.406-0.639,15.73-0.639,15.73s-1.203,5.211-54.295,14.535
			c0,0-0.094-2.754-5.943-2.555c-5.846,0.191-8.441,5.098-8.441,5.098l-47.633,7.773c0,0-2.154-2.684-4.91-2.594
			c-2.746,0.086-6.43,3.305-6.43,3.305l-56.004,4.602l-1.514-4.082c0,0-0.717,9.672,4.104,9.516
			c4.811-0.16,49.609,0.082,49.609,0.082s0.105,3.102,1.193,4.789c1.084,1.684,6.42,6.676,7.451,6.637
			c1.033-0.031,5.738-3.625,5.738-3.625l2.141,2.34l9.84-0.324c0,0,0.504,1.621,1.68,1.586c1.195-0.035,1.139-1.652,1.139-1.652
			l22.307-0.73c0,0,0.234,2.957,2.074,2.898c1.828-0.063,1.871-3.027,1.871-3.027l6.355-0.211c0,0,0.494,2.098,1.629,2.063
			c1.121-0.039,2.463-2.203,2.406-3.895c-0.051-1.699-0.088-6.922-0.088-6.922l3.674-0.121c0,0,0.207,1.977,1.334,1.941
			c1.135-0.035,2.178-2.477,2.178-2.477l10.873-0.359l0.066,2.109l-5.787,0.195c0,0-1.305,3.148-1.191,6.68
			c0.119,3.527-0.742,7.516,3.371,7.949c4.113,0.43,31.848,1.492,31.848,1.492l0.199,6.207l-28.719,3.496l0.055,1.406
			c0,0,20.256,1.453,32.109,1.063c11.861-0.395,27.105-0.891,27.105-0.891s6.344,7.98,10.008,7.863
			c3.677,0.117,10.017-7.863,10.017-7.863s15.242,0.496,27.098,0.891c11.863,0.391,32.117-1.063,32.117-1.063l0.043-1.406
			l-28.711-3.496l0.199-6.211c0,0,27.73-1.059,31.852-1.488c4.109-0.434,3.25-4.422,3.371-7.949c0.105-3.531-1.188-6.68-1.188-6.68
			l-5.797-0.188l0.066-2.113l10.875,0.355c0,0,1.047,2.441,2.176,2.477c1.125,0.035,1.336-1.941,1.336-1.941l3.672,0.121
			c0,0-0.035,5.223-0.086,6.922c-0.063,1.699,1.285,3.859,2.41,3.895c1.137,0.035,1.621-2.063,1.621-2.063l6.359,0.211
			c0,0,0.039,2.965,1.867,3.027c1.844,0.059,2.078-2.898,2.078-2.898l22.309,0.734c0,0-0.063,1.605,1.129,1.648
			c1.184,0.035,1.695-1.586,1.695-1.586l9.832,0.324l2.145-2.34c0,0,4.707,3.594,5.73,3.625c1.039,0.039,6.371-4.953,7.461-6.637
			c1.086-1.688,1.188-4.789,1.188-4.789s44.797-0.242,49.617-0.082C504.278,278.291,503.567,268.627,503.567,268.627
			 M278.234,294.686c0.08,2.402,0.164,5.082-0.398,5.102l-7.477,0.246c-2.545,0.082-3.57-0.875-3.598-1.863
			c-0.037-1.129,1.777-1.75,3.758-1.816c1.973-0.063,3.799-0.41,3.773-1.117c-0.016-0.707-0.195-5.93-0.195-5.93
			c-0.08-2.531,3.047-2.074,3.629-1.523C278.308,288.318,278.158,292.287,278.234,294.686 M323.614,300.033
			c-2.543-0.086-6.918-0.23-7.484-0.246c-0.57-0.02-0.473-2.699-0.395-5.102c0.078-2.398-0.074-6.367,0.504-6.902
			c0.586-0.551,3.707-1.008,3.625,1.523c0,0-0.168,5.223-0.191,5.93c-0.023,0.711,1.801,1.055,3.781,1.117
			c1.973,0.066,3.789,0.688,3.754,1.816C327.18,299.158,326.153,300.115,323.614,300.033"/>
		<g>
			<path fill="#FFFFFF" stroke="#52504D" d="M123.878,379.672v-48.67h18.016v48.67H123.878z"/>
			<path fill="#FFFFFF" stroke="#52504D" d="M203.013,379.672l-31.894-48.67h19.538l22.581,36.021l21.851-36.021h19.112
				l-31.955,48.67H203.013z"/>
			<path fill="#FFFFFF" stroke="#52504D" d="M365.046,379.672h-19.599l-7.791-11.056H301.99l-7.364,11.056h-19.112l34.754-48.67
				h19.051L365.046,379.672z M331.875,360.416l-12.294-18.061l-12.052,18.061H331.875z"/>
			<path fill="#FFFFFF" stroke="#52504D" d="M392.141,355.636c0-4.958,1.359-9.118,4.078-12.483
				c2.028-2.479,4.798-4.702,8.308-6.673c3.51-1.97,7.354-3.431,11.534-4.382c5.559-1.283,11.97-1.926,19.233-1.926
				c13.147,0,23.666,2.225,31.559,6.673c7.892,4.449,11.839,10.636,11.839,18.559c0,7.857-3.917,14.005-11.747,18.442
				c-7.832,4.438-18.301,6.656-31.406,6.656c-13.27,0-23.819-2.208-31.65-6.623C396.056,369.463,392.141,363.383,392.141,355.636z
				 M410.705,355.304c0,5.511,2.333,9.688,7,12.532c4.666,2.845,10.591,4.267,17.772,4.267c7.183,0,13.076-1.411,17.682-4.233
				c4.604-2.821,6.908-7.055,6.908-12.698c0-5.577-2.242-9.738-6.726-12.483c-4.484-2.744-10.438-4.116-17.864-4.116
				s-13.411,1.389-17.955,4.166C412.977,345.516,410.705,349.704,410.705,355.304z"/>
		</g>
	</g>
</g>
</svg>
